<svg width="1024" height="1024" viewBox="0 0 1024 1024" fill="none" xmlns="http://www.w3.org/2000/svg">
<path d="M684.446 231.055C685.622 232.042 686.798 233.028 687.975 234.014C734.619 273.301 763.724 328.593 769.602 389.281C774.553 449.087 756.762 509.746 718.51 556.208C718.026 556.803 717.542 557.397 717.043 558.009C708.006 569.052 698.218 578.329 686.999 587.183C660.952 608.169 642.649 638.405 637.996 671.818C637.67 677.495 638.892 679.546 642.125 684.205C644.349 690.256 644.484 695.822 644.456 702.226C644.462 703.819 644.462 703.819 644.467 705.443C644.477 708.94 644.471 712.437 644.464 715.934C644.465 718.375 644.467 720.817 644.47 723.258C644.473 728.371 644.468 733.484 644.459 738.598C644.447 745.133 644.454 751.668 644.466 758.204C644.473 763.245 644.471 768.287 644.466 773.328C644.464 775.737 644.466 778.146 644.471 780.554C644.476 783.931 644.468 787.307 644.456 790.684C644.461 791.668 644.465 792.652 644.469 793.666C644.366 810.257 639.075 823.927 627.718 836.032C613.537 849.766 595.808 852.943 576.77 852.876C575.233 852.882 573.697 852.889 572.161 852.898C568.03 852.916 563.899 852.915 559.768 852.909C556.303 852.906 552.837 852.912 549.372 852.918C541.19 852.933 533.009 852.931 524.827 852.919C516.42 852.908 508.014 852.922 499.607 852.95C492.355 852.973 485.104 852.979 477.852 852.973C473.535 852.97 469.219 852.972 464.903 852.99C460.843 853.006 456.783 853.002 452.722 852.983C451.243 852.979 449.764 852.982 448.285 852.993C431.528 853.107 417.055 848.644 404.711 836.975C395.748 826.04 390.131 814.436 390.131 800.105C390.129 798.953 390.126 797.8 390.123 796.612C390.126 795.362 390.128 794.112 390.13 792.825C390.127 790.785 390.124 788.745 390.121 786.706C390.118 784.519 390.118 782.332 390.117 780.146C390.116 775.565 390.103 770.985 390.087 766.405C390.084 765.629 390.082 764.853 390.079 764.054C390.073 762.467 390.068 760.881 390.062 759.295C390.026 748.641 389.999 737.987 390.001 727.334C390.003 720.136 389.986 712.938 389.949 705.741C389.93 701.943 389.92 698.146 389.933 694.349C390.005 670.707 387.623 651.261 375.809 630.529C375.223 629.478 374.638 628.426 374.035 627.343C366.505 614.664 356.119 607.04 343.809 599.562C325.133 588.076 312.632 573.982 307.359 552.337C306.02 544.804 306.49 536.989 306.649 529.37C305.565 528.846 304.48 528.321 303.363 527.781C282.865 517.782 265.781 505.365 257.85 482.961C252.341 466.499 252.105 449.645 259.702 433.788C262.302 428.58 265.169 423.712 268.456 418.921C268.132 418.37 267.807 417.819 267.473 417.252C255.607 396.594 253.644 374.837 259.166 351.826C265.096 330.821 277.553 313.707 296.665 302.996C302 300.214 302 300.214 304.585 300.214C304.525 299.598 304.465 298.982 304.403 298.347C303.379 278.654 313.759 259.952 326.262 245.506C326.945 244.633 327.629 243.76 328.334 242.861C338.948 229.874 357.954 217.764 374.776 215.571C392.711 214.595 392.711 214.595 400.582 216.603C400.848 215.845 401.115 215.086 401.389 214.305C407.623 200.119 425.182 191.494 438.823 185.785C517.435 155.183 621.224 176.627 684.446 231.055ZM473.871 202.152C472.665 202.384 472.665 202.384 471.434 202.621C452.304 206.435 431.049 212.392 419.163 228.99C420.507 231.796 422.008 234.347 423.743 236.925C431.585 249.371 432.054 264.626 429.227 278.731C426.56 289.854 422.187 304.072 411.933 310.379C407.726 311.997 404.83 311.961 400.582 310.537C397.246 308.052 395.73 306.474 394.603 302.46C394.345 298.509 395.18 296.806 397.099 293.376C403.968 280.518 409.75 267.685 405.679 252.925C403.52 247.216 399.45 243.874 394.062 241.24C384.987 238.307 375.707 239.99 367.285 243.978C350.041 253.287 337.201 267.223 330.39 285.763C329.481 289.187 328.786 292.574 328.326 296.085C329.769 296.219 329.769 296.219 331.241 296.355C352.394 298.687 370.377 308.187 384.167 324.443C395.358 339.57 399.676 356.16 397.006 374.785C395.204 382.995 391.969 391.413 385.933 397.438C383.824 399.112 383.824 399.112 384.067 401.373C383.472 401.653 382.877 401.932 382.264 402.22C379.917 403.448 377.891 404.857 375.744 406.405C362.765 415.129 348.104 416.122 332.923 416.318C317.252 416.715 302.262 421.115 290.649 432.082C282.049 441.349 278.357 450.304 278.497 462.779C279.487 475.503 286.271 486.03 295.343 494.693C300.376 498.8 309.315 505.629 315.939 505.629C316.991 503.88 317.965 502.084 318.907 500.274C325.445 488.774 336.056 475.87 348.971 471.565C354.446 471.212 357.977 471.027 362.39 474.662C364.808 477.771 364.729 481.022 364.829 484.883C364.139 488.871 362.273 491.489 359.124 493.968C358.285 494.495 357.447 495.021 356.583 495.564C344.82 503.527 335.491 514.499 331.874 528.515C329.932 541.068 330.976 551.926 338.326 562.53C344.484 570.14 351.568 575.274 360.087 579.956C374.066 587.722 385.905 599.481 394.389 612.981C394.968 613.851 395.547 614.721 396.143 615.618C406.22 631.605 410.996 649.349 413.636 667.896C413.825 669.769 413.997 669.771 413.997 670.877C415.459 670.966 417.694 670.796 419.158 670.786C420.04 670.783 421.188 670.88 422.096 670.877C423.023 670.868 423.881 670.795 424.836 670.786C425.766 670.781 426.766 670.841 427.725 670.836C430.032 670.824 432.339 670.807 434.646 670.786C436.106 638.619 426.491 609.17 405.292 584.917C399.808 578.959 393.862 573.187 387.163 568.595C386.482 568.595 385.801 568.595 385.099 568.595C382.678 563.905 382.275 559.311 383.034 554.144C384.885 550.922 386.381 549.447 389.55 547.563C395.393 546.204 399.794 547.808 404.837 550.79C408.257 553.065 411.215 555.779 414.195 558.595C414.864 559.227 415.534 559.86 416.224 560.511C434.445 578.089 445.679 598.873 452.968 622.981C453.173 623.654 453.379 624.327 453.59 625.021C456.662 635.665 457.701 646.546 458.452 657.56C458.61 659.855 458.773 662.149 458.94 664.443C459.042 665.939 459.042 665.939 459.146 667.464C459.932 669.771 456.835 670.602 460.452 670.786C462.411 670.886 464.375 670.912 466.337 670.91C467.615 670.912 468.893 670.913 470.21 670.914C471.639 670.911 473.069 670.907 474.498 670.903C475.993 670.903 477.488 670.903 478.983 670.904C483.055 670.904 487.126 670.898 491.197 670.891C495.447 670.884 499.697 670.884 503.947 670.882C512.001 670.879 520.054 670.871 528.108 670.86C537.274 670.849 546.441 670.843 555.607 670.838C574.468 670.827 593.329 670.809 612.19 670.786C613.36 667.326 614.476 663.987 615.105 660.387C622.436 620.925 644.115 587.217 675.866 562.789C687.843 553.301 698.507 541.954 707.156 529.37C707.635 528.674 708.115 527.978 708.609 527.26C729.996 495.771 744.29 457.911 744.526 419.486C744.533 418.686 744.54 417.887 744.548 417.064C744.566 414.5 744.572 411.937 744.574 409.373C744.575 408.496 744.575 407.619 744.576 406.715C744.559 393.365 744.11 380.394 741.219 367.309C741.042 366.497 740.865 365.684 740.682 364.846C733.525 333.112 719.176 303.218 697.865 278.537C697.186 277.744 696.506 276.951 695.805 276.134C656.032 230.887 601.353 204.292 541.197 199.244C533.643 198.815 526.079 198.803 518.515 198.797C517.623 198.796 516.73 198.795 515.811 198.794C501.635 198.805 487.822 199.436 473.871 202.152ZM299.423 331.181C298.736 331.751 298.048 332.32 297.339 332.907C286.749 342.383 281.331 356.99 280.521 370.938C280.101 382.726 281.475 392.839 287.037 403.438C292.163 401.797 297.006 399.764 301.915 397.571C313.352 393.372 324.144 392.654 336.233 392.588C348.599 392.489 358.5 391.968 367.636 383.011C373.882 375.81 374.554 368.178 374.127 358.918C373.09 348.093 367.906 341.767 360.325 334.278C359.752 333.682 359.178 333.086 358.587 332.472C349.056 323.344 336.654 320.452 323.895 320.573C314.297 321.291 306.529 324.806 299.423 331.181Z" fill="#14413F"/>
<path fill-rule="evenodd" clip-rule="evenodd" d="M689.087 234.685C687.911 233.699 686.134 232.059 684.958 231.072C616.315 173.413 517.383 155.053 438.771 185.654C425.13 191.363 407.288 200.105 401.094 215.072L400.578 216.621C400.578 216.621 400.578 216.621 399.03 216.105C394.385 214.556 387.056 214.686 374.772 215.355C357.95 217.548 340.484 227.892 329.87 240.878L325.741 246.056C313.239 260.502 303.312 276.342 304.336 296.035V298.316L304.399 300.022C302 300.022 300.968 300.748 300.968 300.748C299.935 301.264 300.52 300.892 296.839 302.812C277.726 313.523 263.848 331.199 258.646 352.876C253.123 375.887 255.603 397.643 267.468 418.301L267.936 418.939C264.648 423.729 261.761 429.214 259.162 434.422C251.565 450.279 252.337 467.549 257.845 484.011C265.777 506.415 282.861 518.831 303.359 528.831L306.645 530.42C306.622 531.524 306.592 532.636 306.563 533.747C306.388 540.301 306.21 546.947 307.355 553.387C312.628 575.032 325.129 589.126 343.805 600.612C356.117 608.091 366.513 615.716 374.034 628.405L375.805 631.579C381.176 640.895 383.888 649.545 386.643 659.965C387.085 661.733 387.39 663.607 387.692 665.466L387.746 665.797C388.026 667.515 388.31 669.216 388.707 670.803H413.997C413.997 651.932 407.21 632.585 397.167 616.664L395.417 614.031C386.299 599.401 373.185 587.198 358.128 578.87C350.702 574.767 344.768 570.253 339.418 563.645C332.014 553.024 330.954 542.161 332.902 529.565C336.507 515.597 345.546 505.32 357.031 497.195C358.51 496.204 359.223 495.726 359.913 495.215C360.557 494.739 361.181 494.234 362.386 493.259C364.675 490.107 365.906 487.818 365.805 483.905C365.373 478.458 364.83 476.922 360.708 473.389C356.263 471.084 353.917 470.661 348.967 471.066C338.51 474.552 330.857 483.241 324.171 491.614L322.774 493.904C320.202 497.129 318.148 500.094 316.669 503.993L315.419 505.646C309.336 502.92 303.886 501.2 298.48 497.267C288.25 488.381 280.602 477.668 279.525 463.829C279.389 451.723 282.835 442.704 291.161 433.648C302.51 423.005 317.677 418.786 332.919 418.4C352.276 418.15 368.835 415.401 384.062 402.423C393.107 393.379 398.044 381.143 398.731 368.48C398.919 349.267 392.511 333.212 379.309 319.199C366.949 306.94 350.028 297.08 332.193 296.941L328.322 297.135C332.459 281.059 339.984 265.966 353.079 255.346L355.16 253.781C359.03 250.843 363.011 248.366 367.285 246.056C375.705 242.075 385.031 240.356 394.09 243.354C399.289 245.86 402.534 248.521 404.578 253.91C408.774 268.668 402.937 281.558 396.062 294.425C393.532 298.949 393.046 301.375 394.385 306.425C396.58 310.468 399.385 312.113 403.675 313.651C407.399 313.773 410.746 313.338 413.989 311.373C423.043 303.288 427.502 291.261 430.255 279.781C433.082 265.675 432.614 250.421 424.771 237.975C423.036 235.396 421.535 232.846 420.191 230.04L421.287 228.362C433.285 213.655 453.524 208.273 471.43 204.703L473.867 204.234C487.818 201.518 501.631 200.887 515.807 200.876L518.511 200.879C526.075 200.885 533.639 200.897 541.193 201.326C600.656 206.316 655.328 232.389 694.732 277.148L696.829 279.587C718.142 304.263 732.489 334.165 739.646 365.896L740.183 368.359C743.074 381.443 743.523 394.415 743.54 407.765L743.538 410.423C743.536 412.986 743.529 415.55 743.511 418.114L743.489 420.535C743.461 425.085 743.295 429.565 742.811 434.092C736.991 482.477 714.896 531.937 675.991 562.677C656.196 577.951 638.383 597.589 627.568 620.29L626.637 622.288C619.58 637.442 612.603 653.928 612.186 670.803C620.447 670.836 627.394 672.793 634.649 676.711L639.024 679.577C643.406 641.872 655.952 618.439 686.995 588.233C686.995 588.233 708.002 570.102 717.039 559.059L718.506 557.258C756.758 510.796 774.549 450.137 769.598 390.33C763.72 329.643 735.732 273.972 689.087 234.685ZM299.419 332.231L297.335 333.957C286.745 343.433 281.327 358.04 280.517 371.988C280.097 383.776 287.032 403.455 287.032 403.455C287.032 403.455 296.703 400.062 301.484 397.778C313.354 393.133 324.709 392.711 336.58 392.617C348.946 392.518 358.773 391.584 367.547 382.81C373.74 375.585 374.256 369.391 374.123 359.968C373.085 349.143 368.418 342.301 360.837 334.812L352.579 328.102C341.225 320.876 334.301 321.909 322.644 321.909C313.047 322.627 306.524 325.856 299.419 332.231Z" fill="#F78631"/>
<path d="M471.849 303.362C472.964 303.354 472.964 303.354 474.101 303.347C476.592 303.335 479.082 303.344 481.573 303.354C483.358 303.35 485.144 303.344 486.929 303.338C491.779 303.323 496.628 303.329 501.478 303.339C506.549 303.347 511.62 303.339 516.691 303.334C525.206 303.329 533.721 303.336 542.237 303.351C552.089 303.368 561.94 303.362 571.792 303.345C580.245 303.331 588.697 303.329 597.15 303.337C602.201 303.342 607.252 303.343 612.303 303.333C617.05 303.324 621.797 303.33 626.544 303.348C628.289 303.352 630.034 303.351 631.779 303.344C634.155 303.335 636.531 303.346 638.908 303.362C640.239 303.363 641.571 303.364 642.942 303.365C646.149 303.755 646.149 303.755 648.155 305.155C649.246 306.851 649.246 306.851 649.165 309.613C647.991 313.847 646.307 317.578 644.343 321.496C643.997 322.23 643.651 322.964 643.294 323.72C642.943 324.427 642.592 325.134 642.23 325.863C641.918 326.499 641.605 327.136 641.283 327.791C639.32 330.409 637.84 331.345 634.795 332.657C631.091 333.137 627.409 333.162 623.678 333.185C622.608 333.204 621.539 333.223 620.437 333.242C617.03 333.297 613.622 333.332 610.215 333.367C607.901 333.401 605.587 333.437 603.273 333.474C597.609 333.561 591.944 333.632 586.28 333.689C587.012 334.704 587.012 334.704 587.758 335.739C594.319 344.947 600.731 355.112 600.731 366.721C616.4 366.721 633.021 366.721 649.165 366.721C652.443 366.721 650.54 373.7 648.439 378.152C647.995 379.096 647.551 380.04 647.093 381.013C646.611 381.981 646.129 382.949 645.633 383.946C645.183 384.926 644.734 385.906 644.27 386.916C641.528 392.581 639.893 395.398 633.762 397.688C630.122 398.04 630.122 398.04 626.158 397.99C625.456 397.986 624.755 397.982 624.032 397.977C621.813 397.96 619.595 397.921 617.376 397.881C615.862 397.866 614.349 397.852 612.835 397.839C609.144 397.805 605.454 397.752 601.763 397.688C601.486 398.775 601.21 399.862 600.924 400.982C596.373 418.066 589.498 430.636 576.99 443.106C576.352 443.805 575.715 444.503 575.058 445.223C556.358 465.448 526.51 470.414 500.604 473.041C501.206 473.744 501.807 474.446 502.427 475.17C508.068 481.84 513.42 488.662 518.629 495.675C522.061 500.291 525.553 504.85 529.12 509.363C534.039 515.586 538.891 521.857 543.717 528.153C545.858 530.946 548.005 533.734 550.151 536.523C551.02 537.652 551.888 538.781 552.756 539.91C554.395 542.04 556.035 544.169 557.676 546.297C565.257 556.136 572.804 566.002 580.305 575.902C581.874 577.965 583.456 580.016 585.046 582.063C585.794 583.045 586.541 584.027 587.312 585.038C587.929 585.837 588.547 586.635 589.183 587.458C590.687 590.189 590.888 591.771 590.409 594.845C589.307 596.518 589.307 596.518 587.312 597.941C584.714 598.274 582.376 598.424 579.776 598.425C579.039 598.433 578.302 598.441 577.542 598.449C575.983 598.46 574.424 598.463 572.865 598.458C570.492 598.457 568.122 598.5 565.75 598.546C564.232 598.551 562.714 598.554 561.196 598.554C560.492 598.571 559.789 598.588 559.064 598.605C553.277 598.523 551.004 596.685 547.055 592.78C545.444 590.874 543.897 588.913 542.41 586.909C541.517 585.72 540.623 584.532 539.728 583.345C539.012 582.388 539.012 582.388 538.28 581.411C535.419 577.621 532.491 573.881 529.571 570.135C528.646 568.946 528.646 568.946 527.701 567.733C522.586 561.163 517.447 554.612 512.296 548.069C509.945 545.083 507.597 542.093 505.249 539.104C504.303 537.9 503.357 536.695 502.411 535.491C496.733 528.265 491.056 521.04 485.379 513.814C484.91 513.218 484.442 512.622 483.959 512.008C483.014 510.804 482.068 509.601 481.123 508.397C478.747 505.372 476.369 502.348 473.988 499.327C471.627 496.329 469.272 493.327 466.92 490.323C465.962 489.103 465.003 487.885 464.041 486.67C462.61 484.862 461.188 483.049 459.767 481.234C458.935 480.179 458.103 479.124 457.246 478.037C453.16 472.222 452.771 467.573 452.799 460.654C452.782 459.835 452.766 459.015 452.749 458.17C452.745 453.335 453.06 450.108 456.218 446.203C459.499 444.016 460.322 443.878 464.08 443.858C465.046 443.848 466.012 443.837 467.007 443.827C468.052 443.824 469.097 443.822 470.174 443.82C472.403 443.794 474.632 443.768 476.861 443.741C480.362 443.712 483.863 443.687 487.364 443.667C508.842 443.524 529.176 442.648 546.023 427.623C546.669 427.072 547.316 426.521 547.982 425.953C555.313 419.263 559.538 410.12 562.538 400.785C562.538 399.763 562.538 398.741 562.538 397.688C561.658 397.691 561.658 397.691 560.76 397.694C546.485 397.739 532.21 397.773 517.935 397.795C511.032 397.806 504.128 397.82 497.225 397.844C490.565 397.866 483.906 397.878 477.247 397.884C474.703 397.888 472.16 397.895 469.616 397.906C466.06 397.921 462.504 397.923 458.947 397.922C457.362 397.933 457.362 397.933 455.745 397.945C454.776 397.942 453.806 397.939 452.807 397.936C451.545 397.939 451.545 397.939 450.258 397.942C447.661 397.655 446.02 397.044 443.831 395.623C442.336 391.643 442.752 388.991 444.287 385.168C445 383.635 445.73 382.109 446.477 380.592C446.823 379.826 447.17 379.06 447.527 378.271C449.871 373.369 452.406 369.487 457.25 366.721C460.652 366.002 463.963 366.067 467.429 366.135C468.437 366.134 469.445 366.134 470.483 366.133C473.801 366.136 477.118 366.176 480.435 366.217C482.741 366.227 485.046 366.234 487.352 366.239C493.41 366.259 499.468 366.309 505.526 366.367C511.712 366.419 517.898 366.443 524.084 366.469C536.214 366.524 548.344 366.612 560.474 366.721C559.509 365.086 558.54 363.454 557.571 361.822C557.032 360.912 556.493 360.003 555.938 359.066C548.23 346.66 536.102 339.225 522.217 335.399C517.049 334.245 512.124 333.56 506.825 333.51C505.633 333.496 504.442 333.482 503.214 333.468C501.308 333.452 501.308 333.452 499.362 333.435C496.664 333.401 493.965 333.367 491.266 333.333C487.016 333.282 482.766 333.237 478.516 333.197C474.411 333.158 470.307 333.103 466.202 333.048C464.922 333.04 463.643 333.031 462.325 333.022C461.146 333.005 459.968 332.988 458.753 332.97C457.713 332.959 456.673 332.949 455.601 332.938C453.122 332.657 453.122 332.657 451.057 330.593C451.32 324.614 453.345 320.064 456.025 314.851C456.379 314.122 456.734 313.393 457.099 312.642C457.631 311.588 457.631 311.588 458.174 310.513C458.492 309.883 458.809 309.253 459.137 308.604C462.552 303.658 466.058 303.367 471.849 303.362Z" fill="#15413F"/>
<path d="M430.788 696.092C431.521 696.086 432.253 696.08 433.007 696.075C435.449 696.061 437.889 696.076 440.331 696.091C442.086 696.087 443.841 696.082 445.597 696.074C450.357 696.06 455.117 696.072 459.878 696.089C464.866 696.103 469.854 696.096 474.842 696.093C483.222 696.09 491.602 696.104 499.981 696.128C509.656 696.155 519.331 696.157 529.005 696.145C538.324 696.134 547.643 696.14 556.962 696.155C560.921 696.161 564.881 696.16 568.84 696.156C573.51 696.151 578.179 696.161 582.848 696.183C584.557 696.189 586.266 696.19 587.975 696.184C597.866 696.158 606.287 696.371 615.154 701.383C620.678 707.557 620.877 715.603 620.638 723.512C620.624 724.405 620.61 725.299 620.595 726.219C620.559 728.392 620.504 730.565 620.444 732.737C619.684 732.743 618.924 732.749 618.141 732.756C610.958 732.816 603.776 732.89 596.593 732.981C592.901 733.027 589.209 733.067 585.516 733.095C581.949 733.122 578.381 733.164 574.814 733.215C572.8 733.241 570.786 733.251 568.771 733.261C559.541 733.3 559.541 733.3 551.284 736.866C546.506 742.794 546.562 748.272 546.643 755.68C546.642 756.781 546.64 757.881 546.639 759.014C546.64 761.331 546.652 763.647 546.674 765.963C546.704 769.506 546.695 773.048 546.682 776.591C546.688 778.846 546.697 781.102 546.708 783.357C546.705 784.414 546.702 785.471 546.699 786.56C546.654 793.814 546.654 793.814 550.252 799.833C556.933 805.001 564.54 804.583 572.639 804.59C573.979 804.608 575.319 804.625 576.7 804.642C580.236 804.687 583.772 804.708 587.309 804.723C590.928 804.744 594.547 804.787 598.166 804.828C605.248 804.906 612.33 804.958 619.412 804.994C618.397 812.892 616.15 817.06 610.11 822.267C599.836 829.719 588.749 830.216 576.433 830.07C575.014 830.064 573.596 830.06 572.177 830.056C568.483 830.045 564.789 830.014 561.095 829.98C557.309 829.948 553.524 829.934 549.738 829.918C542.34 829.886 534.941 829.833 527.543 829.767C527.535 829.009 527.526 828.25 527.518 827.469C527.437 820.33 527.347 813.191 527.246 806.052C527.195 802.382 527.147 798.712 527.108 795.041C527.062 790.824 527.001 786.607 526.938 782.389C526.926 781.068 526.914 779.746 526.902 778.385C526.882 777.166 526.861 775.947 526.84 774.69C526.826 773.613 526.812 772.536 526.798 771.426C526.76 768.686 527.276 768.686 524.962 766.801C521.853 766.513 521.337 766.513 517.696 766.599C516.353 766.606 515.009 766.613 513.624 766.62C512.199 766.637 510.775 766.654 509.35 766.672C507.917 766.682 506.484 766.692 505.052 766.7C501.538 766.725 498.025 766.759 494.512 766.801C493.147 769.53 493.313 771.634 493.267 774.69C493.247 775.91 493.226 777.129 493.205 778.385C493.188 779.706 493.17 781.028 493.153 782.389C493.121 784.413 493.121 784.413 493.088 786.477C493.031 790.064 492.98 793.652 492.93 797.239C492.878 800.899 492.821 804.559 492.764 808.219C492.653 815.402 492.548 822.585 492.447 829.767C485.975 829.767 479.503 829.767 472.835 829.767C472.784 826.885 472.734 824.003 472.681 821.034C472.626 818.249 472.567 815.465 472.507 812.681C472.467 810.743 472.431 808.804 472.399 806.866C472.352 804.083 472.292 801.301 472.23 798.518C472.218 797.648 472.206 796.778 472.194 795.882C472.275 791.172 472.791 790.914 470.254 787.188C467.886 786.867 467.37 787.125 464.641 787.172C463.633 787.169 462.624 787.166 461.585 787.163C460.528 787.171 459.472 787.179 458.383 787.188C457.327 787.18 456.27 787.172 455.182 787.163C454.173 787.166 453.165 787.169 452.125 787.172C450.734 787.175 450.734 787.175 449.315 787.179C446.817 787.231 446.817 787.231 444.964 789.51C444.71 792.541 444.579 795.482 444.537 798.518C444.517 799.409 444.497 800.299 444.476 801.217C444.415 804.067 444.367 806.917 444.319 809.768C444.28 811.698 444.239 813.628 444.198 815.558C444.099 820.294 444.012 825.031 443.932 829.767C434.935 830.115 429.287 829.596 422.255 823.574C415.552 815.789 413.686 808.249 413.714 798.199C413.709 797.222 413.703 796.244 413.698 795.237C413.684 792.016 413.684 788.796 413.687 785.575C413.683 783.33 413.678 781.086 413.673 778.842C413.666 774.142 413.666 769.443 413.671 764.744C413.677 758.725 413.66 752.706 413.636 746.688C413.621 742.055 413.62 737.422 413.623 732.788C413.623 730.569 413.617 728.35 413.607 726.131C413.594 723.028 413.601 719.926 413.613 716.822C413.605 715.908 413.597 714.995 413.589 714.053C413.633 708.875 414.035 705.118 417.094 700.738C421.754 697.001 424.855 696.093 430.788 696.092Z" fill="#42778A"/>
<path d="M404.824 550.794C408.303 553.121 411.294 555.926 414.32 558.806C415.332 559.764 415.332 559.764 416.365 560.741C442.798 586.14 457.97 620.709 459.415 657.384C459.483 661.861 459.464 666.325 459.415 670.803C451.24 670.803 443.065 670.803 434.642 670.803C434.478 668.783 434.315 666.764 434.146 664.683C432.256 642.837 429.014 624.051 418.126 604.74C417.284 603.216 417.284 603.216 416.425 601.66C409.226 589.511 399.339 580.034 387.897 571.935C384.422 569.095 382.438 566.593 381.514 562.165C381.454 557.969 381.623 555.034 384.256 551.645C389.74 545.387 395.971 544.871 404.824 550.794Z" fill="#F78631"/>
<path d="M609.089 843.187C611.133 843.187 613.177 843.187 615.283 843.187C612.857 845.995 610.579 847.281 607.025 848.348C606.003 848.007 604.981 847.666 603.928 847.315C605.631 846.975 607.335 846.634 609.089 846.283C609.089 845.261 609.089 844.239 609.089 843.187Z" fill="#184C4A"/>
<circle cx="586.896" cy="768.35" r="23.2253" fill="#457A8F"/>
</svg>
